<svg width="22" height="22" viewBox="0 0 22 22" fill="none" xmlns="http://www.w3.org/2000/svg">
<path d="M3.66667 17.4167L8.25 12.8333M18.3333 17.4167L13.75 12.8333M2.77596 9.16666L9.37255 13.5819C9.96059 13.9739 10.2547 14.1699 10.5725 14.2461C10.8532 14.3134 11.146 14.3134 11.4269 14.2461C11.7447 14.1699 12.0388 13.9739 12.6268 13.5819L19.2234 9.16666M9.43993 3.72972L4.12329 7.06866C3.62194 7.3835 3.37127 7.54093 3.18945 7.75374C3.02853 7.9421 2.90745 8.16112 2.83352 8.39757C2.75 8.66473 2.75 8.96073 2.75 9.55276V15.4C2.75 16.4267 2.75 16.9402 2.94982 17.3323C3.12559 17.6773 3.40605 17.9578 3.75102 18.1335C4.14319 18.3333 4.65657 18.3333 5.68333 18.3333H16.3167C17.3434 18.3333 17.8569 18.3333 18.249 18.1335C18.5939 17.9578 18.8744 17.6773 19.0502 17.3323C19.25 16.9402 19.25 16.4267 19.25 15.4V9.55276C19.25 8.96073 19.25 8.66473 19.1665 8.39757C19.0925 8.16112 18.9715 7.9421 18.8105 7.75374C18.6288 7.54093 18.3781 7.3835 17.8767 7.06866L12.5601 3.72972C11.9942 3.37439 11.7113 3.19673 11.4078 3.12747C11.1393 3.06623 10.8607 3.06623 10.5922 3.12747C10.2887 3.19673 10.0058 3.37439 9.43993 3.72972Z" stroke="currentColor" stroke-width="1.5" stroke-linecap="round" stroke-linejoin="round"/>
</svg>
